<?xml version="1.0" encoding="UTF-8"?>
<svg width="24px" height="24px" viewBox="0 0 24 24" version="1.1" xmlns="http://www.w3.org/2000/svg" xmlns:xlink="http://www.w3.org/1999/xlink">
    <title>check-icon</title>
    <g id="check-icon" stroke="none" stroke-width="1" fill="none" fill-rule="evenodd">
        <circle id="background" fill="#343A40" cx="12" cy="12" r="12"></circle>
        <path d="M10.7449509,16.7649885 L18.7949424,8.71497031 C19.0682991,8.44158687 19.0682991,7.99837351 18.7949424,7.72501677 L17.8050156,6.73506323 C17.5316588,6.46170649 17.0884187,6.46170649 16.815062,6.73506323 L10.2499875,13.3001378 L7.18490461,10.2350549 C6.91154787,9.96167144 6.46830781,9.96167144 6.19495107,10.2350549 L5.20502423,11.2250084 C4.93166749,11.4983919 4.93166749,11.9416052 5.20502423,12.214962 L9.75502406,16.7649618 C10.0283541,17.0383452 10.4715675,17.0383452 10.7449509,16.7649885 Z M10.7449509,16.7649885 L18.7949424,8.71497031 C19.0682991,8.44158687 19.0682991,7.99837351 18.7949424,7.72501677 L17.8050156,6.73506323 C17.5316588,6.46170649 17.0884187,6.46170649 16.815062,6.73506323 L10.2499875,13.3001378 L7.18490461,10.2350549 C6.91154787,9.96167144 6.46830781,9.96167144 6.19495107,10.2350549 L5.20502423,11.2250084 C4.93166749,11.4983919 4.93166749,11.9416052 5.20502423,12.214962 L9.75502406,16.7649618 C10.0283541,17.0383452 10.4715675,17.0383452 10.7449509,16.7649885 Z" id="check" fill="#F6A600" fill-rule="nonzero"></path>
    </g>
</svg>