<?xml version="1.0" encoding="UTF-8"?>
<svg width="29px" height="29px" viewBox="0 0 29 29" version="1.1" xmlns="http://www.w3.org/2000/svg" xmlns:xlink="http://www.w3.org/1999/xlink">
    <title>linkedin-logo</title>
    <g id="Web" stroke="none" stroke-width="1" fill="none" fill-rule="evenodd">
        <g id="Landing-(Desktop)" transform="translate(-1827.000000, -5678.000000)" fill="#FFFFFF" fill-rule="nonzero">
            <path d="M1853.2,5706.50005 C1854.29998,5706.50005 1855.2,5705.5938 1855.2,5704.48131 L1855.2,5680.51878 C1855.2,5679.4063 1854.29998,5678.50005 1853.2,5678.50005 L1829.19377,5678.50005 C1828.09374,5678.50005 1827.2,5679.4063 1827.2,5680.51878 L1827.2,5704.48131 C1827.2,5705.5938 1828.09374,5706.50005 1829.19377,5706.50005 L1853.2,5706.50005 Z M1833.58751,5687.31255 C1832.25627,5687.31255 1831.18126,5686.23131 1831.18126,5684.9063 C1831.18126,5683.58128 1832.25627,5682.50005 1833.58751,5682.50005 C1834.91252,5682.50005 1835.99376,5683.58128 1835.99376,5684.9063 C1835.99376,5686.23753 1834.91875,5687.31255 1833.58751,5687.31255 Z M1842.41875,5702.50005 L1838.26873,5702.50005 L1838.26873,5689.13756 L1842.24999,5689.13756 L1842.24999,5690.96257 L1842.30626,5690.96257 C1842.86248,5689.91252 1844.21874,5688.80632 1846.23748,5688.80632 C1850.43749,5688.80632 1851.21874,5691.57506 1851.21874,5695.17503 L1851.21874,5702.50005 L1847.06877,5702.50005 L1847.06877,5696.00005 C1847.06877,5694.45006 1847.03752,5692.45628 1844.91252,5692.45628 C1842.74999,5692.45628 1842.41875,5694.14378 1842.41875,5695.88756 L1842.41875,5702.50005 Z M1835.66875,5702.50005 L1831.5125,5702.50005 L1831.5125,5689.13756 L1835.66875,5689.13756 L1835.66875,5702.50005 Z" id="linkedin-logo"></path>
        </g>
    </g>
</svg>