<?xml version="1.0" encoding="UTF-8"?>
<svg width="304px" height="56px" viewBox="0 0 304 56" version="1.1" xmlns="http://www.w3.org/2000/svg" xmlns:xlink="http://www.w3.org/1999/xlink">
    <title>locncap-logo-white</title>
    <g id="Page-1" stroke="none" stroke-width="1" fill="none" fill-rule="evenodd">
        <g id="locncap-logo-white" transform="translate(0.000058, 0.160545)" fill-rule="nonzero">
            <path d="M127.036602,38.0228101 C125.963896,38.0228101 125.090767,38.8861449 125.081936,39.9588509 C125.079849,40.1916639 125.078725,40.4342711 125.078725,40.6794472 C125.078725,45.6009535 115.977503,45.4822991 115.977503,40.6794472 L115.977503,14.0877072 C115.977503,14.0877072 115.883093,10.7811204 120.986033,10.7811204 C125.909305,10.7811204 124.994431,14.1365176 125.04854,14.1907872 C125.056568,14.1986546 125.056568,15.0456123 125.05448,15.8912854 C125.052393,16.8270331 125.809116,17.5874485 126.745024,17.5900175 L130.502144,17.6006145 C131.441424,17.6031835 132.204248,16.8410019 132.202161,15.902043 C132.201518,15.5846145 132.198789,15.2795492 132.193009,15.0438461 C132.130069,12.5399022 132.372997,4.07706939 121.006103,4.07706939 C108.194966,4.07706939 108.630567,13.6901589 108.689172,14.4911962 C108.692543,14.5359926 108.693667,14.5807891 108.693667,14.6254249 L108.693667,42.9860621 C108.693667,42.9860621 108.201228,51.4015294 120.407372,51.4015294 C132.613196,51.4015294 132.223033,41.4204348 132.223033,41.4204348 C132.223033,41.4204348 132.220464,40.7311478 132.218698,39.9734619 C132.21645,38.895618 131.342037,38.0228101 130.264193,38.0228101 L127.036602,38.0228101 Z" id="Fill-1" fill="#FFFFFF"></path>
            <path d="M149.433566,33.2147721 L147.06658,33.2147721 C146.064842,33.2147721 145.329635,32.2734048 145.572723,31.3013704 L147.718135,22.7195622 C147.849153,22.1959738 148.592388,22.1937259 148.726296,22.716351 L150.925335,31.292379 C151.175167,32.2666613 150.439318,33.2147721 149.433566,33.2147721 M163.000783,48.9219426 L151.578175,6.59284664 C150.217423,3.27662619 145.494691,3.0364274 144.213738,6.61757299 L133.914894,48.969308 C133.615448,50.2000056 134.547663,51.3859069 135.814166,51.3859069 L139.627001,51.3859069 C140.532563,51.3859069 141.319631,50.7638948 141.528842,49.8827377 L143.456694,41.7622204 C143.665905,40.8812239 144.452813,40.2592118 145.358535,40.2592118 L151.5968,40.2592118 C152.482613,40.2592118 153.2578,40.8548919 153.485636,41.7110015 L155.67456,49.9341171 C155.902395,50.7900662 156.677582,51.3859069 157.563556,51.3859069 L161.113553,51.3859069 C162.400286,51.3859069 163.336034,50.1642006 163.000783,48.9219426" id="Fill-3" fill="#FFFFFF"></path>
            <path d="M183.671703,22.3344253 C183.671703,24.6623947 181.784473,26.5494644 179.456504,26.5494644 L176.410989,26.5494644 C175.201806,26.5494644 174.221744,25.5692414 174.221744,24.3600589 L174.221744,12.8423985 C174.221744,11.633216 175.201806,10.652993 176.410989,10.652993 L179.456504,10.652993 C181.784473,10.652993 183.671703,12.5402233 183.671703,14.8680321 L183.671703,22.3344253 Z M190.39165,12.4241379 C190.39165,12.4241379 189.605384,3.9969496 178.647278,3.9969496 L168.280035,3.9969496 C167.198177,3.9969496 166.322158,4.87553769 166.325351,5.95723505 L166.44868,49.3787859 C166.451891,50.4490834 167.315065,51.3178773 168.385363,51.3276715 L172.395366,51.3650878 C173.48188,51.3748764 174.368175,50.49677 174.368175,49.4102558 L174.368175,34.4715288 C174.368175,33.5352994 175.127145,32.7761685 176.063375,32.7761685 L181.708688,32.7761685 C181.708688,32.7761685 190.562326,32.7761685 190.562326,24.5901424 C190.562326,17.5253115 190.39165,12.4241379 190.39165,12.4241379 L190.39165,12.4241379 Z" id="Fill-5" fill="#FFFFFF"></path>
            <path d="M244.280537,41.2699252 C244.280537,41.2699252 244.268174,37.8846637 244.280537,37.8721399 C244.280537,37.8721399 244.250513,17.2946822 244.250513,17.4547612 C244.250513,17.4698539 244.262555,10.3229765 244.259504,6.39582262 C244.25838,5.03169901 243.152117,3.9265598 241.787993,3.9265598 L239.566957,3.9265598 C238.205403,3.9265598 237.100424,5.02511603 237.095286,6.38634954 C237.061247,15.4846815 236.975026,37.7110976 237.136229,37.8721399 C237.178778,37.8297519 237.136229,39.1354314 237.136229,40.5287771 C237.136229,45.4504439 228.035007,45.3317895 228.035007,40.5287771 L228.035007,6.39807047 C228.035007,5.03314406 226.928583,3.9265598 225.563496,3.9265598 L223.222682,3.9265598 C221.857756,3.9265598 220.751171,5.03314406 220.751171,6.39807047 L220.751171,42.8355525 C220.751171,42.8355525 220.258892,51.2510198 232.464876,51.2510198 C244.67086,51.2510198 244.280537,41.2699252 244.280537,41.2699252" id="Fill-7" fill="#FFFFFF"></path>
            <path d="M301.459281,44.1109503 L289.493175,44.1109503 C288.284795,44.1109503 287.305375,43.1313695 287.305375,41.9231503 L287.305375,33.2509464 C287.305375,32.0425667 288.284795,31.062986 289.493175,31.062986 L298.685756,31.062986 C299.893975,31.062986 300.873556,30.0835658 300.873556,28.8750255 L300.873556,26.0465884 C300.873556,24.8382086 299.893975,23.8586279 298.685756,23.8586279 L289.493175,23.8586279 C288.284795,23.8586279 287.305375,22.8792077 287.305375,21.6706674 L287.305375,13.3989018 C287.305375,12.1903615 288.284795,11.2109414 289.493175,11.2109414 L301.4474,11.2109414 C302.655619,11.2109414 303.6352,10.2313606 303.6352,9.02314138 L303.6352,6.19454374 C303.6352,4.98600344 302.655619,4.00658325 301.4474,4.00658325 L287.305375,4.00658325 L282.352078,4.00658325 C281.142413,4.00658325 280.162351,4.98809073 280.164112,6.1975944 L280.22786,49.1907693 C280.229465,50.3978646 281.208564,51.375358 282.41566,51.375358 L301.475337,51.375358 C302.688213,51.375358 303.669881,50.3885521 303.663206,49.1755161 L303.647242,46.2868687 C303.640498,45.0833058 302.663005,44.1109503 301.459281,44.1109503" id="Fill-9" fill="#FFFFFF"></path>
            <path d="M196.948531,4.00651902 L195.206769,4.00651902 C193.887763,4.00651902 192.818428,5.07569264 192.818428,6.39485926 L192.818428,9.08617751 C192.818428,10.4051836 193.887763,11.4745178 195.206769,11.4745178 L198.634258,11.4745178 C199.951819,11.4745178 201.020511,12.5414435 201.022598,13.8591651 L201.074459,48.9906465 C201.076386,50.3082075 202.145078,51.3752938 203.462639,51.3752938 L205.763955,51.3752938 C207.082961,51.3752938 208.152295,50.3061202 208.152295,48.9869536 L208.152295,13.8626975 C208.152295,12.5436914 209.221469,11.4745178 210.540635,11.4745178 L213.793916,11.4745178 C215.113083,11.4745178 216.182256,10.4051836 216.182256,9.08617751 L216.182256,6.39485926 C216.182256,4.33518675 214.999406,4.01406537 213.31111,4.01406537 L206.95965,4.01406537 C203.250056,4.01406537 201.351747,4.00651902 196.948531,4.00651902" id="Fill-11" fill="#FFFFFF"></path>
            <path d="M258.272839,24.2897012 L258.272839,12.7718802 C258.272839,11.5626977 259.253062,10.5824747 260.462245,10.5824747 L263.50776,10.5824747 C265.835729,10.5824747 267.722799,12.469705 267.722799,14.7976745 L267.722799,22.263907 C267.722799,24.5918764 265.835729,26.4789462 263.50776,26.4789462 L260.462245,26.4789462 C259.253062,26.4789462 258.272839,25.4987232 258.272839,24.2897012 M274.961517,48.9715719 L270.709389,33.3411494 C270.454418,32.403475 270.826116,31.4211647 271.614469,30.853101 C273.261661,29.6660759 274.613422,27.7183141 274.613422,24.5196241 C274.613422,17.4547933 274.442746,12.3536197 274.442746,12.3536197 C274.442746,12.3536197 273.656641,3.92659191 262.698534,3.92659191 L252.331291,3.92659191 C251.249594,3.92659191 250.373575,4.80501943 250.37645,5.88687735 L250.500096,49.3081071 C250.502987,50.3784046 251.366321,51.2471985 252.436619,51.2571533 L256.446622,51.2942428 C257.533297,51.3043581 258.419431,50.4262517 258.419431,49.3397375 L258.419431,34.4010105 C258.419431,33.4647812 259.178402,32.7056502 260.114631,32.7056502 L261.715582,32.7056502 C262.638003,32.7056502 263.442412,33.3326397 263.667839,34.2272839 L267.635294,49.9835859 C267.863129,50.8395349 268.638316,51.4353756 269.52413,51.4353756 L273.074448,51.4353756 C274.36102,51.4353756 275.296607,50.2138299 274.961517,48.9715719" id="Fill-13" fill="#FFFFFF"></path>
            <path d="M117.741487,24.5137637 L117.741487,24.5108736 C117.741487,24.5103919 117.741005,24.5099102 117.740363,24.5099102 C117.728,24.5099102 117.715797,24.5103919 117.703434,24.5103919 C117.699741,24.5103919 117.696369,24.5095891 117.692677,24.5095891 C117.687378,24.5095891 117.682401,24.510713 117.677263,24.5108736 C112.351625,24.5222734 107.412939,25.9197936 102.860562,28.7043976 C98.384611,31.4427601 94.9413871,35.130518 92.5170812,39.7561109 C92.4946027,39.786778 92.463454,39.810541 92.4440261,39.8439376 C92.4201026,39.8855228 92.4127168,39.9335305 92.394734,39.9776846 C92.3828525,40.0009659 92.3688837,40.0228022 92.3566811,40.0462441 C92.35636,40.0468863 92.3566811,40.0475285 92.3571628,40.0478497 L92.366957,40.052827 C92.0919165,40.8997847 92.834028,42.1092883 94.1578509,42.8735572 C95.5923001,43.7015687 97.1505416,43.687921 97.6384855,42.8428901 C97.6563077,42.8119019 97.6608034,42.7756152 97.6752539,42.7433425 L97.6803918,42.7459115 C97.6808735,42.746072 97.6813552,42.7459115 97.6816763,42.7454298 C98.6049003,40.9949972 99.7357292,39.3791144 101.073361,37.8953731 C102.410029,36.4127557 103.905009,35.1366193 105.558463,34.0666429 C105.559105,34.0661612 105.560069,34.0664824 105.560229,34.0672852 C105.656566,34.4566448 105.716936,34.8574043 105.742144,35.269403 C105.765907,35.6830074 105.778271,36.0842485 105.778271,36.4728054 C105.826278,39.7315451 104.671847,42.6131278 102.31321,45.1170717 C99.9540917,47.6223001 97.0249831,48.8738707 93.5237967,48.8738707 C90.1682389,48.8738707 87.2866562,47.6828315 84.8793699,45.2993081 C82.4724046,42.9170692 81.2686811,40.0232839 81.2686811,36.6189156 C81.2686811,33.6531991 82.2410366,31.0270685 84.1863899,28.7406843 C86.0930481,26.5002205 88.4942332,25.2001606 91.3833622,24.8287837 C91.3852889,24.8287837 91.386734,24.8292654 91.3885001,24.8292654 C92.364388,24.8292654 93.1554705,23.4845696 93.1554705,21.8256566 C93.1554705,20.1781434 92.3748245,18.8419573 91.4080886,18.823814 L91.4080886,18.8210845 C91.4080886,18.8204422 91.4076069,18.8199605 91.4071252,18.8199605 C89.7536712,18.7229819 88.4046403,18.054086 87.3595508,16.8140759 C86.3134979,15.5739051 85.7913546,14.1765454 85.7913546,12.619749 C85.7913546,10.7721772 86.4353635,9.21634406 87.7241841,7.9512864 C88.9810532,6.71769863 90.4819745,6.0855712 92.2259847,6.05570692 C93.2155202,6.03884804 94.207143,6.24356292 95.1035534,6.66294744 C95.988885,7.07735457 96.7504243,7.65216184 97.3888136,8.38801147 C97.3891347,8.38849315 97.3899375,8.38849315 97.3902587,8.38817203 L97.3944332,8.38480026 C97.4167512,8.4193208 97.4291144,8.45946098 97.4556069,8.49141255 C98.0781007,9.24283657 99.6243001,8.98899013 100.908947,7.92463332 C102.193753,6.86027652 102.730508,5.38825613 102.108014,4.63683211 C102.092439,4.61804651 102.0698,4.60744951 102.052942,4.58978783 C100.837979,3.13366295 99.3807295,2.00492131 97.6813552,1.20372348 C95.9787697,0.40124116 94.2037713,0 92.3561994,0 C88.9031813,0 85.9482224,1.24017076 83.49341,3.72035171 C81.0373131,6.2003721 79.8099872,9.16721249 79.8099872,12.619749 C79.8099872,14.2736846 80.125489,15.8783282 80.7579375,17.4340007 C81.3894227,18.9907971 82.3134495,20.3510673 83.5290545,21.5183435 C83.5295361,21.5188251 83.5293756,21.5196279 83.5288939,21.5199491 C80.3905747,23.5722358 78.0576279,26.4107882 76.5311774,30.0336795 C76.3829799,30.3851469 76.250999,30.7431972 76.129294,31.1044588 C75.7270895,32.2982275 75.4671418,33.5388799 75.3635801,34.7952673 C75.2169882,36.5755642 75.307705,38.2622543 75.5835483,39.875568 C76.2057209,43.514676 78.0658165,46.563563 80.6485957,49.5302428 C82.985396,52.2143358 88.3820013,54.9270086 92.9318095,54.9270086 C99.110827,54.9270086 102.275639,53.2693801 106.471411,49.5302428 C110.257753,46.1557388 111.833014,41.6282485 111.833014,36.6189156 C111.833014,36.1812272 111.82049,35.756223 111.796406,35.342137 C111.771519,34.9298172 111.711149,34.5035285 111.614009,34.0656795 C111.565038,33.6281517 111.492144,33.2031475 111.395165,32.7892221 C111.297063,32.3769022 111.176803,31.9510953 111.030853,31.5138885 C111.030692,31.5132463 111.031014,31.512604 111.031656,31.5122829 C112.100187,31.1728576 113.194248,30.9177267 114.313195,30.746569 C115.430858,30.5770169 116.57389,30.4914381 117.740363,30.4914381 C117.741005,30.4914381 117.741487,30.4911169 117.741487,30.4904747 L117.741487,30.4861396 C118.694575,30.4419854 119.459486,29.1236216 119.459486,27.5000319 C119.459486,25.8762817 118.694575,24.5579178 117.741487,24.5137637" id="Fill-15" fill="#F6A600"></path>
            <path d="M75.9783028,38.0228101 C74.9055968,38.0228101 74.0324678,38.8861449 74.0236369,39.9588509 C74.0215497,40.1916639 74.0204257,40.4342711 74.0204257,40.6794472 C74.0204257,45.6009535 64.9192037,45.4822991 64.9192037,40.6794472 L64.9192037,14.0877072 C64.9192037,14.0877072 64.824794,10.7811204 69.9277338,10.7811204 C74.8510062,10.7811204 73.9361314,14.1365176 73.9902403,14.1907872 C73.9982684,14.1986546 73.9982684,15.0456123 73.9961811,15.8912854 C73.9940938,16.8270331 74.7508163,17.5874485 75.6867246,17.5900175 L79.4438447,17.6006145 C80.3831247,17.6031835 81.1459485,16.8410019 81.1438612,15.902043 C81.143219,15.5846145 81.1404894,15.2795492 81.1347093,15.0438461 C81.0717695,12.5399022 81.3146978,4.07706939 69.9478039,4.07706939 C57.1366666,4.07706939 57.5722677,13.6901589 57.6308724,14.4911962 C57.6342441,14.5359926 57.6353681,14.5807891 57.6353681,14.6254249 L57.6353681,42.9860621 C57.6353681,42.9860621 57.1429284,51.4015294 69.3490731,51.4015294 C81.5548966,51.4015294 81.1647341,41.4204348 81.1647341,41.4204348 C81.1647341,41.4204348 81.1621651,40.7311478 81.160399,39.9734619 C81.1581511,38.895618 80.2837376,38.0228101 79.2058937,38.0228101 L75.9783028,38.0228101 Z" id="Fill-22" fill="#FFFFFF"></path>
            <path d="M35.2926258,40.3808846 L35.2926258,13.7891446 C35.2926258,13.7891446 34.9381078,10.542768 40.0412081,10.542768 C44.4638523,10.542768 44.3095535,13.8381156 44.363823,13.8922246 C44.3797185,13.9081201 44.3938478,38.9873784 44.3938478,40.3808846 C44.3938478,45.3025514 35.2926258,45.1838971 35.2926258,40.3808846 M51.5383168,41.1220328 C51.5383168,41.1220328 51.525793,37.7367712 51.5383168,37.7242475 C51.5383168,37.7242475 51.5081314,17.1467897 51.5081314,17.3068687 C51.5081314,17.3269388 51.5293254,15.5845342 51.5081314,14.7452835 C51.4451916,12.2415001 51.6882805,3.77850679 40.3213865,3.77850679 C26.9532642,3.77850679 28.0087902,14.2459398 28.0087902,14.2459398 L28.0087902,42.6876601 C28.0087902,42.6876601 27.5165111,51.1031274 39.7224952,51.1031274 C51.9283187,51.1031274 51.5383168,41.1220328 51.5383168,41.1220328" id="Fill-18" fill="#FFFFFF"></path>
            <path d="M1.24344979e-14,5.84733125 L0.0635878065,48.9249611 C0.065353974,50.1087751 1.02550689,51.0674829 2.20932084,51.0674829 L21.3536139,51.0674829 C22.543208,51.0674829 23.5057693,50.0996231 23.4992532,48.910029 L23.4828092,45.9369267 C23.4763867,44.7564845 22.5175183,43.8030752 21.3372367,43.8030752 L9.28683597,43.8030752 C8.10173754,43.8030752 7.1412635,42.8424406 7.1412635,41.6573421 L7.1412635,5.84412004 C7.1412635,4.65934272 6.18046834,3.69854756 4.9953699,3.69854756 L2.14557825,3.69854756 C0.959355886,3.69854756 -0.00192095429,4.66110889 1.24344979e-14,5.84733125" id="Fill-20" fill="#FFFFFF"></path>
        </g>
    </g>
</svg>