<?xml version="1.0" encoding="UTF-8"?>
<svg width="304px" height="56px" viewBox="0 0 304 56" version="1.1" xmlns="http://www.w3.org/2000/svg" xmlns:xlink="http://www.w3.org/1999/xlink">
    <title>locncap-logo</title>
    <g id="Symbols" stroke="none" stroke-width="1" fill="none" fill-rule="evenodd">
        <g id="locncap-logo">
            <path d="M127.03666,38.1833547 C125.963954,38.1833547 125.090825,39.0466895 125.081994,40.1193955 C125.079907,40.3522085 125.078783,40.5948157 125.078783,40.8399918 C125.078783,45.7614981 115.977561,45.6428437 115.977561,40.8399918 L115.977561,14.2482518 C115.977561,14.2482518 115.883151,10.941665 120.986091,10.941665 C125.909363,10.941665 124.994489,14.2970622 125.048598,14.3513318 C125.056626,14.3591992 125.056626,15.2061569 125.054538,16.05183 C125.052451,16.9875777 125.809174,17.7479931 126.745082,17.7505621 L130.502202,17.7611591 C131.441482,17.7637281 132.204306,17.0015465 132.202219,16.0625876 C132.201576,15.7451591 132.198847,15.4400938 132.193067,15.2043907 C132.130127,12.7004468 132.373055,4.23761402 121.006161,4.23761402 C108.195024,4.23761402 108.630625,13.8507035 108.68923,14.6517408 C108.692601,14.6965372 108.693725,14.7413337 108.693725,14.7859695 L108.693725,43.1466067 C108.693725,43.1466067 108.201286,51.562074 120.40743,51.562074 C132.613254,51.562074 132.223091,41.5809794 132.223091,41.5809794 C132.223091,41.5809794 132.220522,40.8916924 132.218756,40.1340065 C132.216508,39.0561626 131.342095,38.1833547 130.264251,38.1833547 L127.03666,38.1833547 Z" id="Fill-1" fill="#343A40"></path>
            <path d="M149.433624,33.3753167 L147.066638,33.3753167 C146.0649,33.3753167 145.329693,32.4339494 145.572781,31.461915 L147.718193,22.8801068 C147.849211,22.3565184 148.592446,22.3542705 148.726354,22.8768956 L150.925393,31.4529236 C151.175225,32.4272059 150.439376,33.3753167 149.433624,33.3753167 M163.000841,49.0824872 L151.578233,6.75339127 C150.217481,3.43717082 145.494749,3.19697203 144.213796,6.77811762 L133.914952,49.1298526 C133.615506,50.3605502 134.547721,51.5464515 135.814224,51.5464515 L139.627059,51.5464515 C140.532621,51.5464515 141.319689,50.9244394 141.5289,50.0432823 L143.456752,41.922765 C143.665963,41.0417685 144.452871,40.4197564 145.358593,40.4197564 L151.596858,40.4197564 C152.482671,40.4197564 153.257858,41.0154365 153.485694,41.8715461 L155.674618,50.0946617 C155.902453,50.9506108 156.67764,51.5464515 157.563614,51.5464515 L161.113611,51.5464515 C162.400344,51.5464515 163.336092,50.3247452 163.000841,49.0824872" id="Fill-3" fill="#343A40"></path>
            <path d="M183.671761,22.4949699 C183.671761,24.8229393 181.784531,26.710009 179.456562,26.710009 L176.411047,26.710009 C175.201864,26.710009 174.221802,25.729786 174.221802,24.5206035 L174.221802,13.0029431 C174.221802,11.7937606 175.201864,10.8135376 176.411047,10.8135376 L179.456562,10.8135376 C181.784531,10.8135376 183.671761,12.7007679 183.671761,15.0285767 L183.671761,22.4949699 Z M190.391708,12.5846825 C190.391708,12.5846825 189.605442,4.15749423 178.647336,4.15749423 L168.280093,4.15749423 C167.198235,4.15749423 166.322216,5.03608232 166.325418,6.11777968 L166.448738,49.5393305 C166.451949,50.609628 167.315123,51.4784219 168.385421,51.4882161 L172.395424,51.52555 C173.481938,51.535421 174.368233,50.6573146 174.368233,49.5708004 L174.368233,34.6320734 C174.368233,33.695844 175.127203,32.9367131 176.063433,32.9367131 L181.708746,32.9367131 C181.708746,32.9367131 190.562384,32.9367131 190.562384,24.750687 C190.562384,17.6858561 190.391708,12.5846825 190.391708,12.5846825 L190.391708,12.5846825 Z" id="Fill-5" fill="#343A40"></path>
            <path d="M244.280595,41.4304698 C244.280595,41.4304698 244.268232,38.0452083 244.280595,38.0326845 C244.280595,38.0326845 244.250571,17.4552268 244.250571,17.6153058 C244.250571,17.6303985 244.262613,10.4835211 244.259562,6.55636725 C244.258438,5.19224364 243.152175,4.08710443 241.788051,4.08710443 L239.567015,4.08710443 C238.205461,4.08710443 237.100482,5.18566066 237.095344,6.54689417 C237.061305,15.6452261 236.975084,37.8716422 237.136287,38.0326845 C237.178836,37.9902965 237.136287,39.295976 237.136287,40.6893217 C237.136287,45.6109885 228.035065,45.4923341 228.035065,40.6893217 L228.035065,6.5586151 C228.035065,5.19368869 226.928641,4.08710443 225.563554,4.08710443 L223.22274,4.08710443 C221.857814,4.08710443 220.751229,5.19368869 220.751229,6.5586151 L220.751229,42.9960971 C220.751229,42.9960971 220.25895,51.4115644 232.464934,51.4115644 C244.670918,51.4115644 244.280595,41.4304698 244.280595,41.4304698" id="Fill-7" fill="#343A40"></path>
            <path d="M301.459339,44.2714949 L289.493233,44.2714949 C288.284853,44.2714949 287.305433,43.2919141 287.305433,42.0836949 L287.305433,33.411491 C287.305433,32.2031113 288.284853,31.2235306 289.493233,31.2235306 L298.685814,31.2235306 C299.894033,31.2235306 300.873614,30.2441104 300.873614,29.0355701 L300.873614,26.207133 C300.873614,24.9987532 299.894033,24.0191725 298.685814,24.0191725 L289.493233,24.0191725 C288.284853,24.0191725 287.305433,23.0397523 287.305433,21.831212 L287.305433,13.5594464 C287.305433,12.3509061 288.284853,11.371486 289.493233,11.371486 L301.447458,11.371486 C302.655677,11.371486 303.635258,10.3919052 303.635258,9.18368601 L303.635258,6.35508837 C303.635258,5.14654807 302.655677,4.16712788 301.447458,4.16712788 L287.305433,4.16712788 L282.352136,4.16712788 C281.142471,4.16712788 280.162409,5.14863536 280.164173,6.35813903 L280.227918,49.3513139 C280.229523,50.5584092 281.208622,51.5359026 282.415718,51.5359026 L301.475395,51.5359026 C302.688271,51.5359026 303.669939,50.5490967 303.66323,49.3360607 L303.6473,46.4474133 C303.640556,45.2438504 302.663063,44.2714949 301.459339,44.2714949" id="Fill-9" fill="#343A40"></path>
            <path d="M196.948589,4.16706365 L195.206827,4.16706365 C193.887821,4.16706365 192.818486,5.23623727 192.818486,6.55540389 L192.818486,9.24672214 C192.818486,10.5657282 193.887821,11.6350624 195.206827,11.6350624 L198.634316,11.6350624 C199.951877,11.6350624 201.020569,12.7019881 201.022656,14.0197097 L201.074517,49.1511911 C201.076444,50.4687521 202.145136,51.5358384 203.462697,51.5358384 L205.764013,51.5358384 C207.083019,51.5358384 208.152353,50.4666648 208.152353,49.1474982 L208.152353,14.0232421 C208.152353,12.704236 209.221527,11.6350624 210.540693,11.6350624 L213.793974,11.6350624 C215.113141,11.6350624 216.182314,10.5657282 216.182314,9.24672214 L216.182314,6.55540389 C216.182314,4.49573138 214.999464,4.17461 213.311168,4.17461 L206.959708,4.17461 C203.250114,4.17461 201.351805,4.16706365 196.948589,4.16706365" id="Fill-11" fill="#343A40"></path>
            <path d="M258.272897,24.4502458 L258.272897,12.9324248 C258.272897,11.7232423 259.25312,10.7430193 260.462303,10.7430193 L263.507818,10.7430193 C265.835787,10.7430193 267.722857,12.6302496 267.722857,14.9582191 L267.722857,22.4244516 C267.722857,24.752421 265.835787,26.6394908 263.507818,26.6394908 L260.462303,26.6394908 C259.25312,26.6394908 258.272897,25.6592678 258.272897,24.4502458 M274.961575,49.1321165 L270.709447,33.501694 C270.454476,32.5640196 270.826174,31.5817093 271.614527,31.0136456 C273.261719,29.8266205 274.61348,27.8788587 274.61348,24.6801687 C274.61348,17.6153379 274.442804,12.5141643 274.442804,12.5141643 C274.442804,12.5141643 273.656699,4.08713654 262.698592,4.08713654 L252.331349,4.08713654 C251.249652,4.08713654 250.373633,4.96556406 250.376516,6.04742198 L250.500154,49.4686517 C250.503045,50.5389492 251.366379,51.4077431 252.436677,51.4176979 L256.44668,51.4547874 C257.533355,51.4649027 258.419489,50.5867963 258.419489,49.5002821 L258.419489,34.5615551 C258.419489,33.6253258 259.17846,32.8661948 260.114689,32.8661948 L261.71564,32.8661948 C262.638061,32.8661948 263.44247,33.4931843 263.667897,34.3878285 L267.635352,50.1441305 C267.863187,51.0000795 268.638374,51.5959202 269.524188,51.5959202 L273.074506,51.5959202 C274.361078,51.5959202 275.296665,50.3743745 274.961575,49.1321165" id="Fill-13" fill="#343A40"></path>
            <path d="M117.741545,24.6743083 L117.741545,24.6714182 C117.741545,24.6709365 117.741063,24.6704548 117.740421,24.6704548 C117.728058,24.6704548 117.715855,24.6709365 117.703492,24.6709365 C117.699799,24.6709365 117.696427,24.6701337 117.692735,24.6701337 C117.687436,24.6701337 117.682459,24.6712576 117.677321,24.6714182 C112.351683,24.682818 107.412997,26.0803382 102.86062,28.8649422 C98.3846695,31.6033047 94.9414456,35.2910626 92.5171397,39.9166555 C92.4946612,39.9473226 92.4635125,39.9710856 92.4440846,40.0044822 C92.4201611,40.0460674 92.4127753,40.0940751 92.3947925,40.1382292 C92.382911,40.1615105 92.3689422,40.1833468 92.3567396,40.2067887 C92.3564185,40.2074309 92.3567396,40.2080731 92.3572213,40.2083943 L92.3670155,40.2133716 C92.091975,41.0603293 92.8340865,42.2698329 94.1579094,43.0341018 C95.5923586,43.8621133 97.1506001,43.8484656 97.638544,43.0034347 C97.6563662,42.9724465 97.6608619,42.9361598 97.6753124,42.9038871 L97.6804503,42.9064561 C97.680932,42.9066166 97.6814137,42.9064561 97.6817348,42.9059744 C98.6049588,41.1555418 99.7357877,39.539659 101.073419,38.0559177 C102.410087,36.5733003 103.905067,35.2971639 105.558521,34.2271875 C105.559163,34.2267058 105.560127,34.227027 105.560287,34.2278298 C105.656624,34.6171894 105.716994,35.0179489 105.742202,35.4299476 C105.765965,35.843552 105.778329,36.2447931 105.778329,36.63335 C105.826336,39.8920897 104.671905,42.7736724 102.313268,45.2776163 C99.9541502,47.7828447 97.0250416,49.0344153 93.5238552,49.0344153 C90.1682974,49.0344153 87.2867147,47.8433761 84.8794284,45.4598527 C82.4724631,43.0776138 81.2687396,40.1838285 81.2687396,36.7794602 C81.2687396,33.8137437 82.2410951,31.1876131 84.1864484,28.9012289 C86.0931066,26.6607651 88.4942917,25.3607052 91.3834207,24.9893283 C91.3853474,24.9893283 91.3867925,24.98981 91.3885586,24.98981 C92.3644465,24.98981 93.155529,23.6451142 93.155529,21.9862012 C93.155529,20.338688 92.374883,19.0025019 91.4081471,18.9843586 L91.4081471,18.9816291 C91.4081471,18.9809868 91.4076654,18.9805051 91.4071837,18.9805051 C89.7537297,18.8835265 88.4046988,18.2146306 87.3596093,16.9746205 C86.3135564,15.7344497 85.7914131,14.33709 85.7914131,12.7802936 C85.7914131,10.9327218 86.435422,9.37688869 87.7242426,8.11183103 C88.9811117,6.87824326 90.482033,6.24611583 92.2260432,6.21625155 C93.2155787,6.19939267 94.2072015,6.40410755 95.1036119,6.82349207 C95.9889435,7.2378992 96.7504828,7.81270647 97.3888721,8.5485561 C97.3891932,8.54903778 97.389996,8.54903778 97.3903172,8.54871666 L97.3944917,8.54534489 C97.4168097,8.57986543 97.4291729,8.62000561 97.4556654,8.65195718 C98.0781592,9.4033812 99.6243586,9.14953476 100.909005,8.08517795 C102.193811,7.02082115 102.730566,5.54880076 102.108072,4.79737674 C102.092497,4.77859114 102.069858,4.76799414 102.053,4.75033246 C100.838037,3.29420758 99.380788,2.16546594 97.6814137,1.36426811 C95.9788282,0.561785792 94.2038298,0.160544632 92.3562579,0.160544632 C88.9032398,0.160544632 85.9482809,1.40071539 83.4934685,3.88089634 C81.0373716,6.36091673 79.8100457,9.32775712 79.8100457,12.7802936 C79.8100457,14.4342292 80.1255475,16.0388728 80.757996,17.5945453 C81.3894812,19.1513417 82.313508,20.5116119 83.529113,21.6788881 C83.5295946,21.6793697 83.5294341,21.6801725 83.5289524,21.6804937 C80.3906332,23.7327804 78.0576864,26.5713328 76.5312359,30.1942241 C76.3830384,30.5456915 76.2510575,30.9037418 76.1293525,31.2650034 C75.727148,32.4587721 75.4672003,33.6994245 75.3636386,34.9558119 C75.2170467,36.7361088 75.3077635,38.4227989 75.5836068,40.0361126 C76.2057794,43.6752206 78.065875,46.7241076 80.6486542,49.6907874 C82.9854545,52.3748804 88.3820598,55.0875532 92.931868,55.0875532 C99.1108855,55.0875532 102.275697,53.4299247 106.471469,49.6907874 C110.257811,46.3162834 111.833072,41.7887931 111.833072,36.7794602 C111.833072,36.3417718 111.820548,35.9167676 111.796464,35.5026816 C111.771577,35.0903618 111.711207,34.6640731 111.614067,34.2262241 C111.565096,33.7886963 111.492202,33.3636921 111.395223,32.9497667 C111.297121,32.5374468 111.176861,32.1116399 111.030911,31.6744331 C111.03075,31.6737909 111.031072,31.6731486 111.031714,31.6728275 C112.100245,31.3334022 113.194306,31.0782713 114.313253,30.9071136 C115.430916,30.7375615 116.573948,30.6519827 117.740421,30.6519827 C117.741063,30.6519827 117.741545,30.6516615 117.741545,30.6510193 L117.741545,30.6466842 C118.694633,30.60253 119.459544,29.2841662 119.459544,27.6605765 C119.459544,26.0368263 118.694633,24.7184624 117.741545,24.6743083" id="Fill-15" fill="#F6A600"></path>
            <path d="M75.9783613,38.1833547 C74.9056553,38.1833547 74.0325263,39.0466895 74.0236954,40.1193955 C74.0216082,40.3522085 74.0204842,40.5948157 74.0204842,40.8399918 C74.0204842,45.7614981 64.9192622,45.6428437 64.9192622,40.8399918 L64.9192622,14.2482518 C64.9192622,14.2482518 64.8248525,10.941665 69.9277923,10.941665 C74.8510647,10.941665 73.9361899,14.2970622 73.9902988,14.3513318 C73.9983269,14.3591992 73.9983269,15.2061569 73.9962396,16.05183 C73.9941523,16.9875777 74.7508748,17.7479931 75.6867831,17.7505621 L79.4439032,17.7611591 C80.3831832,17.7637281 81.146007,17.0015465 81.1439197,16.0625876 C81.1432775,15.7451591 81.1405479,15.4400938 81.1347678,15.2043907 C81.071828,12.7004468 81.3147563,4.23761402 69.9478624,4.23761402 C57.1367251,4.23761402 57.5723262,13.8507035 57.6309309,14.6517408 C57.6343026,14.6965372 57.6354266,14.7413337 57.6354266,14.7859695 L57.6354266,43.1466067 C57.6354266,43.1466067 57.1429869,51.562074 69.3491316,51.562074 C81.5549551,51.562074 81.1647926,41.5809794 81.1647926,41.5809794 C81.1647926,41.5809794 81.1622236,40.8916924 81.1604575,40.1340065 C81.1582096,39.0561626 80.2837961,38.1833547 79.2059522,38.1833547 L75.9783613,38.1833547 Z" id="Fill-22" fill="#343A40"></path>
            <path d="M35.2926843,40.5414292 L35.2926843,13.9496892 C35.2926843,13.9496892 34.9381663,10.7033126 40.0412666,10.7033126 C44.4639108,10.7033126 44.309612,13.9986602 44.3638815,14.0527692 C44.379777,14.0686647 44.3939063,39.147923 44.3939063,40.5414292 C44.3939063,45.463096 35.2926843,45.3444417 35.2926843,40.5414292 M51.5383753,41.2825774 C51.5383753,41.2825774 51.5258515,37.8973158 51.5383753,37.8847921 C51.5383753,37.8847921 51.5081899,17.3073343 51.5081899,17.4674133 C51.5081899,17.4874834 51.5293839,15.7450788 51.5081899,14.9058281 C51.4452501,12.4020447 51.688339,3.93905142 40.321445,3.93905142 C26.9533227,3.93905142 28.0088487,14.4064844 28.0088487,14.4064844 L28.0088487,42.8482047 C28.0088487,42.8482047 27.5165696,51.263672 39.7225537,51.263672 C51.9283772,51.263672 51.5383753,41.2825774 51.5383753,41.2825774" id="Fill-18" fill="#343A40"></path>
            <path d="M6.1332962e-05,6.00787588 L0.0636462568,49.0855057 C0.0654124243,50.2693197 1.02556534,51.2280275 2.20937929,51.2280275 L21.3536724,51.2280275 C22.5432665,51.2280275 23.5058278,50.2601677 23.4992784,49.0705736 L23.4828677,46.0974713 C23.4764452,44.9170291 22.5175768,43.9636198 21.3372952,43.9636198 L9.28689442,43.9636198 C8.10179599,43.9636198 7.14132195,43.0029852 7.14132195,41.8178867 L7.14132195,6.00466467 C7.14132195,4.81988735 6.18052679,3.85909219 4.99542835,3.85909219 L2.1456367,3.85909219 C0.959414336,3.85909219 -0.00186250398,4.82165352 6.1332962e-05,6.00787588" id="Fill-20" fill="#343A40"></path>
        </g>
    </g>
</svg>