<?xml version="1.0" encoding="UTF-8"?>
<svg width="186px" height="186px" viewBox="0 0 186 186" version="1.1" xmlns="http://www.w3.org/2000/svg" xmlns:xlink="http://www.w3.org/1999/xlink">
    <title>play-icon</title>
    <g id="Symbols" stroke="none" stroke-width="1" fill="none" fill-rule="evenodd">
        <g id="Section/Hero" transform="translate(-640.000000, -239.000000)">
            <g id="play-icon" transform="translate(640.000000, 239.000000)">
                <circle id="Oval" fill="#F6A600" cx="93" cy="93" r="93"></circle>
                <path d="M61.4430577,76.6052134 L104.115933,62.8112571 C108.320025,61.4522894 112.829775,63.7587182 114.188743,67.9628099 C114.705834,69.5624797 114.705834,71.2843973 114.188743,72.8840672 L100.394787,115.556942 C99.035819,119.761034 94.5260683,122.067463 90.3219765,120.708495 C89.1168045,120.318925 88.0213526,119.64877 87.1257509,118.753168 L58.2468321,89.8742491 C55.1226377,86.7500547 55.1226377,81.6847349 58.2468321,78.5605406 C59.1424338,77.6649389 60.2378857,76.9947838 61.4430577,76.6052134 Z" id="Play" fill="#FFFFFF" opacity="0.5" transform="translate(84.000000, 93.000000) rotate(-315.000000) translate(-84.000000, -93.000000) "></path>
                <path d="M53.016,94.368 L53.016,80.859 L53.1705,81.093 C53.661,81.804 54.303375,82.41375 55.097625,82.92225 L55.368,83.088 C56.84,83.952 58.52,84.384 60.408,84.384 C62.52,84.384 64.384,83.872 66,82.848 C67.616,81.824 68.888,80.368 69.816,78.48 C70.744,76.592 71.208,74.384 71.208,71.856 C71.208,69.296 70.744,67.048 69.816,65.112 C68.888,63.176 67.616,61.664 66,60.576 C64.384,59.488 62.52,58.944 60.408,58.944 C58.52,58.944 56.84,59.4 55.368,60.312 C54.08,61.11 53.1595,62.122375 52.6065,63.349125 L52.583,63.405 L52.104,59.616 L43.944,59.616 C44.104,60.768 44.208,61.936 44.256,63.12 C44.304,64.304 44.328,65.472 44.328,66.624 L44.328,66.624 L44.328,94.368 L53.016,94.368 Z M57.768,77.904 C56.2,77.904 55,77.376 54.168,76.32 C53.336,75.264 52.92,73.744 52.92,71.76 C52.92,69.712 53.336,68.16 54.168,67.104 C55,66.048 56.2,65.52 57.768,65.52 C59.304,65.52 60.48,66.072 61.296,67.176 C62.112,68.28 62.52,69.84 62.52,71.856 C62.52,73.808 62.12,75.304 61.32,76.344 C60.52,77.384 59.336,77.904 57.768,77.904 Z M83.976,84 L83.976,48.672 L75.288,48.672 L75.288,84 L83.976,84 Z M98.808,84.384 C100.664,84.384 102.336,83.952 103.824,83.088 C104.847,82.494 105.646906,81.74875 106.223719,80.85225 L106.296,80.733 L106.296,84 L114.84,84 L114.84,59.616 L106.296,59.616 L106.296,62.708 L106.170667,62.5093333 C105.655467,61.7381333 104.970347,61.0677333 104.115307,60.4981333 L103.824,60.312 C102.336,59.4 100.664,58.944 98.808,58.944 C96.728,58.944 94.88,59.488 93.264,60.576 C91.648,61.664 90.376,63.176 89.448,65.112 C88.52,67.048 88.056,69.296 88.056,71.856 C88.056,74.384 88.512,76.592 89.424,78.48 C90.336,80.368 91.608,81.824 93.24,82.848 C94.872,83.872 96.728,84.384 98.808,84.384 Z M101.496,77.904 C99.928,77.904 98.728,77.384 97.896,76.344 C97.064,75.304 96.648,73.808 96.648,71.856 C96.648,69.84 97.08,68.28 97.944,67.176 C98.808,66.072 99.992,65.52 101.496,65.52 C103.032,65.52 104.216,66.048 105.048,67.104 C105.88,68.16 106.296,69.712 106.296,71.76 C106.296,73.744 105.872,75.264 105.024,76.32 C104.176,77.376 103,77.904 101.496,77.904 Z M120.264,94.944 C122.28,94.72 124.136,94.256 125.832,93.552 C127.528,92.848 129.064,91.808 130.44,90.432 C131.816,89.056 133.016,87.2 134.04,84.864 L134.04,84.864 L145.224,59.616 L136.68,59.616 L131.007,73.694 L125.544,59.616 L116.52,59.616 L126.448,82.315 L125.832,83.664 C125.496,84.364 125.07425,84.984375 124.56675,85.525125 L124.344,85.752 C123.736,86.344 122.944,86.848 121.968,87.264 C120.992,87.68 119.752,88.032 118.248,88.32 L118.248,88.32 L120.264,94.944 Z M46.056,132 L56.904,107.664 L48.36,107.664 L42.687,121.7 L37.224,107.664 L28.2,107.664 L38.904,132 L46.056,132 Z M67.368,103.488 L67.368,95.664 L58.296,95.664 L58.296,103.488 L67.368,103.488 Z M67.224,132 L67.224,107.616 L58.536,107.616 L58.536,132 L67.224,132 Z M82.056,132.384 C83.912,132.384 85.584,131.952 87.072,131.088 C88.095,130.494 88.8949063,129.74875 89.4717188,128.85225 L89.544,128.733 L89.544,132 L98.088,132 L98.088,96.672 L89.4,96.672 L89.4,110.463 L89.24064,110.23872 C88.74912,109.58336 88.1233422,109.003093 87.3633067,108.49792 L87.072,108.312 C85.584,107.4 83.912,106.944 82.056,106.944 C79.976,106.944 78.12,107.464 76.488,108.504 C74.856,109.544 73.584,111.016 72.672,112.92 C71.76,114.824 71.304,117.04 71.304,119.568 C71.304,122.128 71.768,124.368 72.696,126.288 C73.624,128.208 74.896,129.704 76.512,130.776 C78.128,131.848 79.976,132.384 82.056,132.384 Z M84.744,125.904 C83.24,125.904 82.056,125.36 81.192,124.272 C80.328,123.184 79.896,121.616 79.896,119.568 C79.896,117.616 80.312,116.12 81.144,115.08 C81.976,114.04 83.176,113.52 84.744,113.52 C86.248,113.52 87.424,114.056 88.272,115.128 C89.12,116.2 89.544,117.712 89.544,119.664 C89.544,121.712 89.128,123.264 88.296,124.32 C87.464,125.376 86.28,125.904 84.744,125.904 Z M115.752,132.384 C117.48,132.384 119.208,132.136 120.936,131.64 C122.664,131.144 124.136,130.432 125.352,129.504 L125.352,129.504 L123.144,123.744 C122.184,124.448 121.088,125 119.856,125.4 C118.624,125.8 117.4,126 116.184,126 C114.168,126 112.696,125.464 111.768,124.392 C111.072,123.588 110.637,122.3745 110.463,120.7515 L110.455,120.672 L125.784,120.672 L125.784,119.52 C125.784,116.96 125.32,114.736 124.392,112.848 C123.464,110.96 122.144,109.504 120.432,108.48 C118.72,107.456 116.696,106.944 114.36,106.944 C111.96,106.944 109.848,107.488 108.024,108.576 C106.2,109.664 104.768,111.168 103.728,113.088 C102.688,115.008 102.168,117.216 102.168,119.712 C102.168,122.304 102.712,124.552 103.8,126.456 C104.888,128.36 106.448,129.824 108.48,130.848 C110.512,131.872 112.936,132.384 115.752,132.384 Z M118.356,116.64 L110.576,116.64 L110.61517,116.446173 C110.774616,115.71272 111.013785,115.094422 111.332678,114.59128 L111.456,114.408 C112.176,113.4 113.224,112.896 114.6,112.896 C115.848,112.896 116.8,113.32 117.456,114.168 C117.893333,114.733333 118.184889,115.494222 118.330667,116.450667 L118.356,116.64 Z M142.104,132.384 C144.792,132.384 147.136,131.872 149.136,130.848 C151.136,129.824 152.68,128.36 153.768,126.456 C154.856,124.552 155.4,122.288 155.4,119.664 C155.4,117.072 154.856,114.824 153.768,112.92 C152.68,111.016 151.136,109.544 149.136,108.504 C147.136,107.464 144.792,106.944 142.104,106.944 C139.352,106.944 136.976,107.464 134.976,108.504 C132.976,109.544 131.432,111.016 130.344,112.92 C129.256,114.824 128.712,117.072 128.712,119.664 C128.712,122.288 129.256,124.552 130.344,126.456 C131.432,128.36 132.976,129.824 134.976,130.848 C136.976,131.872 139.352,132.384 142.104,132.384 Z M142.104,125.904 C140.536,125.904 139.344,125.408 138.528,124.416 C137.712,123.424 137.304,121.84 137.304,119.664 C137.304,117.52 137.712,115.952 138.528,114.96 C139.344,113.968 140.536,113.472 142.104,113.472 C143.64,113.472 144.808,113.968 145.608,114.96 C146.408,115.952 146.808,117.52 146.808,119.664 C146.808,121.84 146.4,123.424 145.584,124.416 C144.768,125.408 143.608,125.904 142.104,125.904 Z" id="playvideo" fill="#FFFFFF" fill-rule="nonzero"></path>
            </g>
        </g>
    </g>
</svg>